<svg xmlns="http://www.w3.org/2000/svg" viewBox="0 0 31 34">
      <path
        d="M30.25 16.4991C30.25 17.5304 29.6725 18.4379 28.8337 18.9054L21.6837 22.8791L15.6337 16.4991L21.6837 10.1191L28.8337 14.0929C29.6725 14.5604 30.25 15.4679 30.25 16.4991Z"
        fill="#FFC107"
      />
      <path
        d="M15.6338 16.4991L0.78375 32.1604C0.28875 31.6654 0 30.9916 0 30.2491V2.74914C0 2.00664 0.28875 1.33289 0.78375 0.837891L15.6338 16.4991Z"
        fill="#03A9F4"
      />
      <path
        d="M15.6338 16.5L21.6838 22.88C3.57088 32.8144 2.81188 34.3021 0.783752 32.1613L15.6338 16.5Z"
        fill="#F44336"
      />
      <path
        d="M21.6838 10.1201L15.6338 16.5001L0.783752 0.83882C1.6335 -0.0590549 2.99613 -0.25568 4.08375 0.34382L21.6838 10.1201Z"
        fill="#4CAF50"
      />
    </svg>