<svg
      xmlns="http://www.w3.org/2000/svg"
      fill="none"
      viewBox="0 0 98 98"
    >
      <rect
        width="88"
        height="88"
        rx="44"
        fill="url(#paint0_linear_1372_459)"
        fill-opacity="0.05"
      />
      <rect
        x="12"
        y="12"
        width="64"
        height="64"
        rx="32"
        fill="url(#paint1_linear_1372_459)"
        fill-opacity="0.1"
      />
      <rect
        x="12.5"
        y="12.5"
        width="63"
        height="63"
        rx="31.5"
        stroke="url(#paint2_linear_1372_459)"
        stroke-opacity="0.2"
      />
      <path
        fill-rule="evenodd"
        clip-rule="evenodd"
        d="M53.1691 43.9852H52.1377C52.027 43.987 51.9215 44.0324 51.8438 44.1116C51.7662 44.1908 51.7227 44.2974 51.7227 44.4085C51.7227 44.5196 51.7662 44.6263 51.8438 44.7055C51.9215 44.7847 52.027 44.8301 52.1377 44.8319H52.8155C52.0691 46.4119 50.9151 47.7628 49.4731 48.7445C49.2098 48.9181 48.9945 49.1557 48.8471 49.4351C48.6997 49.7146 48.6251 50.0269 48.6301 50.343V50.8766H39.3704V50.343C39.3746 50.027 39.2997 49.7149 39.1524 49.4355C39.0051 49.1562 38.7902 48.9184 38.5274 48.7442C37.0845 47.7636 35.9302 46.4124 35.185 44.8315H35.8595C35.9154 44.8324 35.971 44.8222 36.023 44.8013C36.075 44.7804 36.1223 44.7494 36.1622 44.71C36.2021 44.6706 36.2338 44.6236 36.2554 44.5718C36.277 44.52 36.2882 44.4644 36.2882 44.4082C36.2882 44.352 36.277 44.2964 36.2554 44.2446C36.2338 44.1928 36.2021 44.1458 36.1622 44.1064C36.1223 44.067 36.075 44.036 36.023 44.0151C35.971 43.9942 35.9154 43.984 35.8595 43.9849H34.8314C34.5181 43.1187 34.3279 42.2126 34.2665 41.2933H35.5922V42.0641C35.5926 42.2457 35.6589 42.4209 35.7788 42.5568C35.8987 42.6928 36.0639 42.7802 36.2435 42.8026L37.3675 42.9413C37.4932 43.3448 37.6548 43.736 37.8502 44.1105L37.1524 45.0066C37.042 45.1503 36.9875 45.3294 36.9991 45.5105C37.0106 45.6916 37.0874 45.8622 37.2152 45.9907L38.8979 47.6802C39.0255 47.8085 39.1955 47.8854 39.3758 47.8965C39.5561 47.9075 39.7342 47.8519 39.8765 47.7402L40.7691 47.0399C41.1426 47.2368 41.5332 47.3991 41.9361 47.5247L42.0749 48.6527C42.0963 48.8328 42.1829 48.9988 42.3182 49.1192C42.4534 49.2396 42.628 49.3061 42.8088 49.3059H45.1886C45.3698 49.3061 45.5447 49.2398 45.6805 49.1195C45.8163 48.9991 45.9036 48.8331 45.9258 48.6527L46.0646 47.5247C46.4663 47.3986 46.8557 47.2364 47.2283 47.0399L48.1209 47.7402C48.2638 47.852 48.4424 47.9075 48.6232 47.8965C48.804 47.8854 48.9745 47.8085 49.1028 47.6802L50.7855 45.9907C50.9136 45.8623 50.9903 45.6913 51.0013 45.5099C51.0122 45.3286 50.9566 45.1496 50.845 45.0066L50.1472 44.1105C50.3426 43.736 50.5041 43.3448 50.6298 42.9413L51.7538 42.8026C51.9336 42.7807 52.0991 42.6935 52.2191 42.5574C52.3391 42.4213 52.4053 42.2458 52.4051 42.0641V41.2931H53.7342C53.6728 42.2125 53.4826 43.1186 53.1694 43.9848L53.1691 43.9852ZM49.969 52.9167C49.9684 53.2332 49.8427 53.5366 49.6197 53.7604C49.3966 53.9842 49.0943 54.1101 48.7789 54.1107H39.2213C39.0651 54.1107 38.9103 54.0798 38.766 54.0198C38.6216 53.9598 38.4905 53.8719 38.38 53.761C38.2695 53.6501 38.1819 53.5185 38.1221 53.3736C38.0623 53.2288 38.0315 53.0735 38.0315 52.9167C38.0315 52.7599 38.0623 52.6046 38.1221 52.4597C38.1819 52.3149 38.2695 52.1833 38.38 52.0724C38.4905 51.9615 38.6216 51.8736 38.766 51.8136C38.9103 51.7535 39.0651 51.7227 39.2213 51.7227H48.7789C49.0943 51.7232 49.3966 51.8492 49.6197 52.073C49.8427 52.2968 49.9684 52.6002 49.969 52.9167ZM46.2531 57.1533H41.747C41.1496 57.1521 40.5744 56.9257 40.1354 56.519C39.6964 56.1123 39.4256 55.5549 39.3767 54.9574H48.6201C48.5725 55.5548 48.3026 56.1124 47.8641 56.5193C47.4255 56.9262 46.8504 57.1525 46.2531 57.1533ZM49.3112 44.4118C49.2594 44.3452 49.2285 44.2646 49.2226 44.1804C49.2167 44.0961 49.236 44.012 49.2779 43.9387C49.5491 43.4712 49.757 42.9695 49.8961 42.4468C49.9176 42.365 49.9632 42.2915 50.0269 42.236C50.0906 42.1805 50.1694 42.1455 50.2532 42.1356L51.5623 41.9737V39.7664L50.2532 39.6049C50.1694 39.595 50.0906 39.56 50.0269 39.5045C49.9632 39.449 49.9176 39.3756 49.8961 39.2937C49.757 38.7711 49.5491 38.2693 49.2779 37.8018C49.236 37.7285 49.2167 37.6444 49.2226 37.5601C49.2285 37.4758 49.2594 37.3952 49.3112 37.3286L50.1244 36.2838L48.5706 34.7231L47.5295 35.5394C47.4628 35.5913 47.3822 35.6222 47.298 35.628C47.2137 35.6338 47.1297 35.6142 47.0566 35.5718C46.5914 35.3005 46.0923 35.0925 45.5724 34.9535C45.4907 34.9323 45.4172 34.8868 45.3617 34.823C45.3063 34.7591 45.2714 34.6799 45.2616 34.5958L45.0997 33.2802H42.9008L42.7389 34.5958C42.7286 34.6797 42.6934 34.7586 42.6381 34.8224C42.5827 34.8861 42.5095 34.9318 42.4281 34.9535C41.9071 35.0925 41.4068 35.3004 40.9404 35.5718C40.8679 35.6141 40.7845 35.6336 40.7008 35.6279C40.6171 35.6221 40.5371 35.5912 40.471 35.5394L39.4299 34.7231L37.8724 36.2841L38.6858 37.3289C38.7383 37.3952 38.7696 37.4759 38.7755 37.5604C38.7815 37.6448 38.7618 37.7291 38.719 37.8021C38.4502 38.2704 38.2435 38.772 38.1042 39.294C38.0826 39.3759 38.0371 39.4493 37.9734 39.5049C37.9097 39.5604 37.8308 39.5954 37.7471 39.6053L36.438 39.7668V41.9741L37.7471 42.1359C37.8308 42.1458 37.9097 42.1808 37.9734 42.2363C38.0371 42.2918 38.0827 42.3653 38.1042 42.4472C38.2421 42.9697 38.4489 43.4714 38.719 43.9391C38.7618 44.0121 38.7815 44.0963 38.7755 44.1808C38.7696 44.2652 38.7383 44.3459 38.6858 44.4121L37.8724 45.457L39.4296 47.018L40.4708 46.2018C40.5367 46.1497 40.6168 46.1187 40.7005 46.1129C40.7843 46.1071 40.8678 46.1268 40.9402 46.1694C41.4067 46.4405 41.9069 46.6483 42.4279 46.7874C42.5093 46.8091 42.5824 46.8548 42.6378 46.9185C42.6932 46.9822 42.7283 47.0612 42.7387 47.1451L42.9006 48.4605H45.0991L45.2611 47.1451C45.2708 47.061 45.3057 46.9817 45.3612 46.9179C45.4167 46.854 45.4901 46.8086 45.5719 46.7874C46.0917 46.6483 46.5908 46.4405 47.0561 46.1694C47.1291 46.1269 47.2132 46.1073 47.2974 46.1131C47.3817 46.1189 47.4623 46.1498 47.5289 46.2018L48.5701 47.018L50.1238 45.457L49.3106 44.4121L49.3112 44.4118ZM34.6756 37.755H35.8591C35.9151 37.7559 35.9707 37.7456 36.0227 37.7248C36.0746 37.7039 36.122 37.6729 36.1619 37.6335C36.2018 37.5941 36.2334 37.5471 36.2551 37.4953C36.2767 37.4435 36.2879 37.3878 36.2879 37.3317C36.2879 37.2755 36.2767 37.2199 36.2551 37.1681C36.2334 37.1162 36.2018 37.0693 36.1619 37.0299C36.122 36.9905 36.0746 36.9594 36.0227 36.9386C35.9707 36.9177 35.9151 36.9074 35.8591 36.9083H34.9798C35.7158 35.1149 36.9661 33.5812 38.5721 32.502C40.1781 31.4228 42.0673 30.8466 44.0001 30.8466C45.9329 30.8466 47.8221 31.4228 49.428 32.502C51.034 33.5812 52.2843 35.1149 53.0204 36.9083H52.1377C52.027 36.9101 51.9215 36.9555 51.8438 37.0347C51.7662 37.1139 51.7227 37.2206 51.7227 37.3317C51.7227 37.4428 51.7662 37.5494 51.8438 37.6286C51.9215 37.7078 52.027 37.7532 52.1377 37.755H53.3245C53.5911 38.6281 53.7357 39.534 53.7543 40.4469H52.4054V39.6755C52.4056 39.4938 52.3394 39.3184 52.2194 39.1824C52.0994 39.0463 51.9339 38.9592 51.7541 38.9373L50.6301 38.7987C50.5044 38.3952 50.3429 38.0038 50.1475 37.6292L50.8453 36.7331C50.957 36.5902 51.0126 36.4111 51.0016 36.2298C50.9906 36.0485 50.9139 35.8775 50.7859 35.7491L49.1032 34.0596C48.9749 33.9312 48.8044 33.8542 48.6236 33.843C48.4428 33.8319 48.2642 33.8874 48.1213 33.9991L47.2286 34.6994C46.8561 34.5029 46.4666 34.3406 46.065 34.2146L45.9262 33.0863C45.9039 32.9059 45.8167 32.7398 45.6809 32.6195C45.5451 32.4992 45.3701 32.4328 45.1889 32.433H42.8082C42.6275 32.433 42.4529 32.4994 42.3177 32.6198C42.1824 32.7402 42.0959 32.9062 42.0743 33.0863L41.9355 34.2144C41.5326 34.3399 41.142 34.5023 40.7685 34.6994L39.8759 33.9991C39.7336 33.8875 39.5555 33.832 39.3753 33.843C39.195 33.8541 39.025 33.931 38.8973 34.0592L37.2146 35.7488C37.0869 35.8772 37.0101 36.0478 36.9985 36.2289C36.987 36.41 37.0414 36.5891 37.1518 36.7328L37.8496 37.6288C37.6541 38.0034 37.4926 38.3948 37.3669 38.7984L36.2429 38.937C36.0634 38.9594 35.8982 39.0468 35.7783 39.1827C35.6584 39.3185 35.5921 39.4937 35.5916 39.6752V40.4466H34.2459C34.2612 39.5334 34.4059 38.627 34.6756 37.7547V37.755ZM60.2506 39.1152C59.8601 39.1159 59.481 39.2472 59.1732 39.4884C58.8655 39.7296 58.6467 40.0669 58.5514 40.4469H54.5972C54.5818 39.5364 54.4496 38.6316 54.2039 37.755H56.3395C56.5675 37.755 56.8783 37.6511 57.0536 37.1568L57.9064 34.7731C57.9626 34.7787 58.0221 34.7816 58.0817 34.7816C58.5006 34.7812 58.9054 34.6297 59.2223 34.3549C59.5392 34.08 59.7472 33.7 59.8083 33.2841C59.8695 32.8682 59.7797 32.4441 59.5553 32.0891C59.3309 31.7341 58.9869 31.4719 58.586 31.3501C58.185 31.2283 57.7538 31.2552 57.371 31.4257C56.9881 31.5963 56.6791 31.8992 56.5001 32.2793C56.3212 32.6594 56.2843 33.0914 56.3962 33.4965C56.5081 33.9016 56.7612 34.2529 57.1096 34.4864L56.2599 36.8711C56.2547 36.8832 56.2503 36.8956 56.2468 36.9083H53.9262C53.1692 34.8793 51.813 33.1306 50.0389 31.896C48.2648 30.6615 46.1573 30 43.9984 30C41.8395 30 39.7321 30.6615 37.9579 31.896C36.1838 33.1306 34.8276 34.8793 34.0706 36.9083H31.7532C31.7482 36.8961 31.7438 36.8837 31.74 36.8711L30.8871 34.4864C31.2356 34.2528 31.4889 33.9014 31.6007 33.496C31.7126 33.0907 31.6755 32.6586 31.4963 32.2784C31.3171 31.8982 31.0077 31.5953 30.6246 31.425C30.2414 31.2546 29.81 31.2281 29.409 31.3504C29.0081 31.4726 28.6642 31.7354 28.4402 32.0908C28.2161 32.4462 28.1269 32.8706 28.1886 33.2866C28.2504 33.7025 28.4591 34.0824 28.7766 34.3568C29.0942 34.6313 29.4994 34.782 29.9185 34.7816C29.978 34.7816 30.0375 34.7787 30.0937 34.7731L30.9433 37.1568C31.1218 37.6511 31.4293 37.755 31.6607 37.755H33.7964C33.5505 38.6316 33.4183 39.5364 33.403 40.4469H29.4456C29.3426 40.0311 29.0915 39.6675 28.7398 39.4246C28.388 39.1817 27.9599 39.0764 27.5361 39.1285C27.1123 39.1805 26.7221 39.3864 26.4392 39.7073C26.1562 40.0281 26 40.4418 26 40.8703C26 41.2987 26.1562 41.7124 26.4392 42.0333C26.7221 42.3541 27.1123 42.56 27.5361 42.6121C27.9599 42.6641 28.388 42.5588 28.7398 42.3159C29.0915 42.073 29.3426 41.7094 29.4456 41.2936H33.4194C33.4759 42.2095 33.6504 43.1142 33.9384 43.9852H31.6606C31.4292 43.9852 31.1217 44.089 30.9432 44.5838L30.0936 46.9675C30.0354 46.9614 29.9769 46.9584 29.9184 46.9585C29.498 46.9577 29.0914 47.1086 28.7727 47.3836C28.4539 47.6587 28.2444 48.0396 28.1822 48.4568C28.12 48.874 28.2094 49.2997 28.434 49.6563C28.6586 50.0129 29.0035 50.2766 29.4057 50.3992C29.8079 50.5219 30.2407 50.4953 30.625 50.3244C31.0093 50.1535 31.3196 49.8496 31.4992 49.4682C31.6788 49.0867 31.7158 48.6532 31.6034 48.2467C31.491 47.8402 31.2368 47.4878 30.887 47.2538L31.7399 44.8693C31.7436 44.8566 31.748 44.8441 31.7531 44.8319H34.2586C35.0577 46.7013 36.3736 48.3021 38.0506 49.4448C38.1997 49.5413 38.3217 49.6745 38.4051 49.8317C38.4885 49.9889 38.5304 50.1649 38.5268 50.3429V50.9987C38.1345 51.1419 37.7955 51.4028 37.556 51.746C37.3165 52.0892 37.188 52.498 37.188 52.917C37.188 53.336 37.3165 53.7448 37.556 54.088C37.7955 54.4312 38.1345 54.6921 38.5268 54.8353C38.5457 55.6802 38.8931 56.4842 39.4948 57.0756C40.0964 57.6669 40.9047 57.9987 41.7468 58H46.2529C47.0947 57.9985 47.9024 57.6667 48.5036 57.0754C49.1047 56.4841 49.4515 55.6803 49.4698 54.8358C49.8627 54.6933 50.2023 54.4328 50.4424 54.0898C50.6826 53.7468 50.8116 53.3379 50.812 52.9186C50.8123 52.4994 50.684 52.0903 50.4445 51.7468C50.2049 51.4034 49.8657 51.1423 49.4731 50.9992V50.3433C49.4696 50.1657 49.5112 49.9901 49.5939 49.833C49.6766 49.6759 49.7977 49.5425 49.9458 49.4452C51.6249 48.3036 52.9423 46.7025 53.7417 44.8319H56.2475C56.2511 44.8446 56.2555 44.8571 56.2607 44.8693L57.1104 47.2538C56.7613 47.4876 56.5075 47.8394 56.3953 48.2452C56.2832 48.6511 56.32 49.0838 56.4992 49.4646C56.6784 49.8455 56.988 50.149 57.3716 50.3199C57.7552 50.4908 58.1871 50.5176 58.5888 50.3956C58.9905 50.2736 59.335 50.0107 59.5597 49.6551C59.7844 49.2994 59.8743 48.8745 59.8129 48.4578C59.7515 48.0412 59.543 47.6606 59.2254 47.3854C58.9077 47.1102 58.5021 46.9586 58.0824 46.9585C58.0239 46.9584 57.9654 46.9614 57.9072 46.9675L57.0543 44.5838C56.8791 44.089 56.5683 43.9852 56.3403 43.9852H54.0618C54.3498 43.1142 54.5243 42.2095 54.5808 41.2936H58.5513C58.6302 41.6131 58.797 41.904 59.0326 42.1329C59.2683 42.3619 59.5633 42.5198 59.8841 42.5886C60.2049 42.6575 60.5385 42.6344 60.8468 42.5221C61.1552 42.4099 61.4259 42.2129 61.6281 41.9537C61.8302 41.6945 61.9557 41.3834 61.9903 41.0561C62.0248 40.7287 61.967 40.3982 61.8233 40.1023C61.6797 39.8063 61.4561 39.5568 61.178 39.3822C60.8999 39.2077 60.5785 39.1151 60.2505 39.115L60.2506 39.1152ZM43.9985 36.5755C43.1522 36.5759 42.3249 36.8281 41.6214 37.3002C40.9179 37.7723 40.3697 38.4431 40.0461 39.2279C39.7224 40.0127 39.638 40.8761 39.8033 41.7091C39.9686 42.542 40.3764 43.3071 40.975 43.9075C41.5735 44.5079 42.3361 44.9168 43.1662 45.0823C43.9963 45.2478 44.8566 45.1627 45.6385 44.8375C46.4203 44.5124 47.0886 43.9619 47.5587 43.2557C48.0288 42.5495 48.2797 41.7192 48.2797 40.8699C48.2782 39.731 47.8267 38.6393 47.024 37.8342C46.2214 37.0291 45.1333 36.5764 43.9985 36.5755Z"
        fill="#155dfc"
      />
      <defs>
        <linearGradient
          id="paint0_linear_1372_459"
          x1="44"
          y1="0"
          x2="44"
          y2="88"
          gradientUnits="userSpaceOnUse"
        >
          <stop stop-color="#155dfc" />
          <stop offset="1" stop-color="#CAFF33" stop-opacity="0" />
        </linearGradient>
        <linearGradient
          id="paint1_linear_1372_459"
          x1="44"
          y1="-30.3784"
          x2="44"
          y2="177.189"
          gradientUnits="userSpaceOnUse"
        >
          <stop stop-color="#155dfc" />
          <stop offset="0.467671" stop-color="#CAFF33" stop-opacity="0" />
        </linearGradient>
        <linearGradient
          id="paint2_linear_1372_459"
          x1="44"
          y1="-99.1351"
          x2="44"
          y2="133.946"
          gradientUnits="userSpaceOnUse"
        >
          <stop stop-color="#155dfc" />
          <stop offset="0.716291" stop-color="#CAFF33" stop-opacity="0" />
        </linearGradient>
      </defs>
    </svg>