<svg
      xmlns="http://www.w3.org/2000/svg"
      viewBox="0,0,25,25"
    >
      <path
        d="M13.5794 3.00129C14.3456 2.99835 15.1118 3.00605 15.8777 3.02439L16.0814 3.03174C16.3166 3.04014 16.5487 3.05064 16.829 3.06324C17.9461 3.11574 18.7084 3.29213 19.3772 3.55147C20.0702 3.81816 20.654 4.17935 21.2377 4.76313C21.7715 5.2877 22.1846 5.92224 22.4483 6.62262C22.7076 7.29145 22.884 8.05477 22.9365 9.17193C22.9491 9.45122 22.9596 9.68431 22.968 9.91951L22.9743 10.1232C22.993 10.8888 23.001 11.6547 22.9985 12.4205L22.9995 13.2038V14.5792C23.0021 15.3454 22.9941 16.1116 22.9754 16.8776L22.9691 17.0813C22.9607 17.3165 22.9502 17.5485 22.9376 17.8289C22.8851 18.946 22.7066 19.7083 22.4483 20.3772C22.1855 21.0783 21.7722 21.7133 21.2377 22.2377C20.7127 22.7714 20.0779 23.1845 19.3772 23.4483C18.7084 23.7076 17.9461 23.884 16.829 23.9365C16.5487 23.9491 16.3166 23.9596 16.0814 23.968L15.8777 23.9743C15.1118 23.993 14.3456 24.001 13.5794 23.9985L12.7962 23.9995H11.4218C10.6556 24.0021 9.8894 23.9941 9.12344 23.9754L8.91975 23.9691C8.6705 23.96 8.42131 23.9495 8.17219 23.9376C7.05505 23.8851 6.29279 23.7066 5.62292 23.4483C4.92227 23.1851 4.28764 22.7719 3.76347 22.2377C3.22909 21.713 2.8156 21.0781 2.55183 20.3772C2.29249 19.7083 2.1161 18.946 2.0636 17.8289C2.05191 17.5797 2.04141 17.3306 2.0321 17.0813L2.02685 16.8776C2.0075 16.1117 1.99875 15.3455 2.00061 14.5792V12.4205C1.99768 11.6547 2.00538 10.8888 2.0237 10.1232L2.03105 9.91951C2.03945 9.68431 2.04995 9.45122 2.06255 9.17193C2.11505 8.05372 2.29144 7.2925 2.55078 6.62262C2.81471 5.92189 3.22901 5.28753 3.76452 4.76418C4.28833 4.22949 4.92257 3.81562 5.62292 3.55147C6.29279 3.29213 7.054 3.11574 8.17219 3.06324L8.91975 3.03174L9.12344 3.02649C9.88904 3.00714 10.6549 2.99839 11.4207 3.00024L13.5794 3.00129ZM12.5001 8.25111C11.8045 8.24128 11.1139 8.36978 10.4684 8.62917C9.82291 8.88856 9.23541 9.27365 8.74005 9.76207C8.24468 10.2505 7.85133 10.8325 7.58284 11.4743C7.31436 12.116 7.1761 12.8047 7.1761 13.5004C7.1761 14.1961 7.31436 14.8848 7.58284 15.5266C7.85133 16.1683 8.24468 16.7503 8.74005 17.2388C9.23541 17.7272 9.82291 18.1123 10.4684 18.3716C11.1139 18.631 11.8045 18.7595 12.5001 18.7497C13.8924 18.7497 15.2277 18.1966 16.2122 17.2121C17.1967 16.2275 17.7498 14.8922 17.7498 13.4999C17.7498 12.1075 17.1967 10.7722 16.2122 9.7877C15.2277 8.80317 13.8924 8.25111 12.5001 8.25111ZM12.5001 10.351C12.9185 10.3433 13.3342 10.4191 13.723 10.5739C14.1118 10.7286 14.4659 10.9593 14.7646 11.2525C15.0632 11.5456 15.3005 11.8954 15.4624 12.2812C15.6244 12.6671 15.7079 13.0814 15.7079 13.4999C15.708 13.9184 15.6247 14.3327 15.4628 14.7186C15.301 15.1045 15.0639 15.4543 14.7653 15.7476C14.4668 16.0408 14.1128 16.2717 13.724 16.4266C13.3353 16.5815 12.9195 16.6573 12.5011 16.6498C11.6657 16.6498 10.8646 16.3179 10.2738 15.7272C9.68314 15.1365 9.35128 14.3353 9.35128 13.4999C9.35128 12.6645 9.68314 11.8633 10.2738 11.2726C10.8646 10.6819 11.6657 10.35 12.5011 10.35L12.5001 10.351ZM18.0123 6.67617C17.6736 6.68972 17.3532 6.83382 17.1184 7.07827C16.8835 7.32273 16.7523 7.64857 16.7523 7.98757C16.7523 8.32657 16.8835 8.65242 17.1184 8.89687C17.3532 9.14132 17.6736 9.28542 18.0123 9.29898C18.3604 9.29898 18.6942 9.1607 18.9403 8.91457C19.1864 8.66844 19.3247 8.33461 19.3247 7.98652C19.3247 7.63844 19.1864 7.30461 18.9403 7.05848C18.6942 6.81234 18.3604 6.67407 18.0123 6.67407V6.67617Z" />
    </svg>