<svg xmlns="http://www.w3.org/2000/svg"  viewBox="0 0 33 33">
      <path
        d="M26.3307 0H6.66516C2.98199 0 0 2.98199 0 6.66516V26.3348C0 30.0139 2.98199 32.9959 6.66516 32.9959H26.3348C30.0139 32.9959 33 30.0139 33 26.3307V6.66516C32.9959 2.98199 30.0139 0 26.3307 0Z"
        fill="url(#paint0_linear_1029_2978)"
      />
      <path
        d="M16.3577 7.5801L17.0259 6.42523C17.4383 5.70342 18.3581 5.46011 19.0799 5.87254C19.8017 6.28498 20.045 7.20473 19.6325 7.92654L13.1942 19.0709H17.8507C19.3603 19.0709 20.2058 20.8445 19.55 22.0735H5.89804C5.06491 22.0735 4.39673 21.4054 4.39673 20.5722C4.39673 19.7391 5.06491 19.0709 5.89804 19.0709H9.72558L14.6255 10.5786L13.0953 7.92241C12.6829 7.2006 12.9262 6.2891 13.648 5.86842C14.3698 5.45598 15.2813 5.69929 15.702 6.4211L16.3577 7.5801Z"
        fill="white"
      />
      <path
        d="M10.567 23.6205L9.12341 26.1241C8.71098 26.8459 7.79123 27.0892 7.06942 26.6768C6.34761 26.2644 6.1043 25.3446 6.51673 24.6228L7.58911 22.7668C8.80166 22.3915 9.78741 22.6802 10.567 23.6205Z"
        fill="white"
      />
      <path
        d="M22.9981 19.0786H26.904C27.7371 19.0786 28.4053 19.7468 28.4053 20.5799C28.4053 21.4131 27.7371 22.0813 26.904 22.0813H24.7345L26.1987 24.6219C26.6111 25.3437 26.3678 26.2552 25.646 26.6759C24.9242 27.0884 24.0127 26.8451 23.592 26.1232C21.1256 21.8461 19.2737 18.6456 18.0446 16.5132C16.7866 14.3437 17.6858 12.166 18.5725 11.4277C19.5583 13.1188 21.0308 15.6718 22.9981 19.0786Z"
        fill="white"
      />
      <defs>
        <linearGradient
          id="paint0_linear_1029_2978"
          x1="16.5"
          y1="0"
          x2="16.5"
          y2="32.9959"
          gradientUnits="userSpaceOnUse"
        >
          <stop stop-color="#00BFFC" />
          <stop offset="1" stop-color="#0073F6" />
        </linearGradient>
      </defs>
    </svg>