<svg
      xmlns="http://www.w3.org/2000/svg"
      width="57"
      height="57"
      viewBox="0 0 57 57"
    >
      <g clip-path="url(#clip0_1029_2941)">
        <path
          fill-rule="evenodd"
          clip-rule="evenodd"
          d="M50.1213 56.9991H6.84534C5.30932 56.9991 4.07381 55.7636 4.07381 54.2276V46.1133C4.07381 44.5773 5.30932 43.3418 6.84534 43.3418H50.1213C51.6573 43.3418 52.8928 44.5773 52.8928 46.1133V54.2276C52.8928 55.7636 51.6573 56.9991 50.1213 56.9991Z"
          fill="#3B3F61"
        />
        <path
          fill-rule="evenodd"
          clip-rule="evenodd"
          d="M6.84534 44.6777C6.07733 44.6777 5.40949 45.3122 5.40949 46.0802V54.2278C5.40949 55.0292 6.07733 55.6637 6.84534 55.6637H50.1213C50.9227 55.6637 51.5571 55.0292 51.5571 54.2278V46.0802C51.5571 45.3122 50.9227 44.6777 50.1213 44.6777H6.84534Z"
          fill="#D6E3FF"
        />
        <path
          fill-rule="evenodd"
          clip-rule="evenodd"
          d="M13.1564 53.9949C12.7891 53.9949 12.4886 53.6944 12.4886 53.3271V47.016C12.4886 46.1144 13.8243 46.1144 13.8243 47.016V53.3271C13.8243 53.6944 13.5237 53.9949 13.1564 53.9949Z"
          fill="#2C3E50"
        />
        <path
          fill-rule="evenodd"
          clip-rule="evenodd"
          d="M10.9192 53.0594C10.3181 53.0594 10.0176 52.3582 10.4183 51.9241L14.8928 47.4496C15.5272 46.8485 16.4622 47.7835 15.8612 48.3846L11.3866 52.8591C11.2531 52.9927 11.0861 53.0594 10.9192 53.0594Z"
          fill="#2C3E50"
        />
        <path
          fill-rule="evenodd"
          clip-rule="evenodd"
          d="M15.3937 53.0594C15.2267 53.0594 15.0264 52.9926 14.9262 52.8591L10.4517 48.3845C9.81723 47.7835 10.7522 46.8151 11.3866 47.4496L15.8612 51.9241C16.2619 52.3582 15.9947 53.0594 15.3937 53.0594Z"
          fill="#2C3E50"
        />
        <path
          fill-rule="evenodd"
          clip-rule="evenodd"
          d="M23.3743 53.9949C23.007 53.9949 22.7065 53.6944 22.7065 53.3271V47.016C22.7065 46.1144 24.0422 46.1144 24.0422 47.016V53.3271C24.0422 53.6944 23.7417 53.9949 23.3743 53.9949Z"
          fill="#2C3E50"
        />
        <path
          fill-rule="evenodd"
          clip-rule="evenodd"
          d="M21.1371 53.0594C20.536 53.0594 20.2355 52.3582 20.6696 51.9241L25.1441 47.4496C25.7452 46.8485 26.7135 47.7835 26.0791 48.3846L21.6046 52.8591C21.471 52.9927 21.304 53.0594 21.1371 53.0594Z"
          fill="#2C3E50"
        />
        <path
          fill-rule="evenodd"
          clip-rule="evenodd"
          d="M25.6116 53.0594C25.4446 53.0594 25.2777 52.9926 25.1441 52.8591L20.6696 48.3845C20.0352 47.7835 20.9701 46.8151 21.6046 47.4496L26.0791 51.9241C26.5132 52.3582 26.2127 53.0594 25.6116 53.0594Z"
          fill="#2C3E50"
        />
        <path
          fill-rule="evenodd"
          clip-rule="evenodd"
          d="M33.5923 53.9949C33.225 53.9949 32.9244 53.6944 32.9244 53.3271V47.016C32.9244 46.1144 34.2601 46.1144 34.2601 47.016V53.3271C34.2601 53.6944 33.993 53.9949 33.5923 53.9949Z"
          fill="#2C3E50"
        />
        <path
          fill-rule="evenodd"
          clip-rule="evenodd"
          d="M31.3884 53.0594C30.7873 53.0594 30.4868 52.3582 30.8875 51.9241L35.362 47.4496C35.9965 46.8485 36.9315 47.7835 36.3304 48.3846L31.8559 52.8591C31.7223 52.9927 31.5554 53.0594 31.3884 53.0594Z"
          fill="#2C3E50"
        />
        <path
          fill-rule="evenodd"
          clip-rule="evenodd"
          d="M35.8629 53.0594C35.6626 53.0594 35.4956 52.9926 35.362 52.8591L30.8875 48.3845C30.2865 47.7835 31.2214 46.8151 31.8559 47.4496L36.3304 51.9241C36.7311 52.3582 36.4306 53.0594 35.8629 53.0594Z"
          fill="#2C3E50"
        />
        <path
          fill-rule="evenodd"
          clip-rule="evenodd"
          d="M43.8436 53.9949C43.4763 53.9949 43.1758 53.6944 43.1758 53.3271V47.016C43.1758 46.1144 44.5114 46.1144 44.5114 47.016V53.3271C44.5114 53.6944 44.2109 53.9949 43.8436 53.9949Z"
          fill="#2C3E50"
        />
        <path
          fill-rule="evenodd"
          clip-rule="evenodd"
          d="M41.6063 53.0594C41.0053 53.0594 40.7047 52.3582 41.1388 51.9241L45.6134 47.4496C46.2144 46.8485 47.1828 47.7835 46.5483 48.3846L42.0738 52.8591C41.9402 52.9927 41.7733 53.0594 41.6063 53.0594Z"
          fill="#2C3E50"
        />
        <path
          fill-rule="evenodd"
          clip-rule="evenodd"
          d="M46.0808 53.0594C45.9139 53.0594 45.7469 52.9926 45.6134 52.8591L41.1388 48.3845C40.5044 47.7835 41.4394 46.8151 42.0738 47.4496L46.5483 51.9241C46.9824 52.3582 46.6819 53.0594 46.0808 53.0594Z"
          fill="#2C3E50"
        />
        <path
          fill-rule="evenodd"
          clip-rule="evenodd"
          d="M15.3937 17.2295C15.1599 17.2295 14.9262 17.0292 14.9262 16.762V10.9518C14.9262 5.80948 18.5993 1.33497 23.6749 0.299816C25.8787 -0.134279 30.2865 -0.0341035 32.1564 0.132856C37.7329 0.600343 42.1072 5.342 42.1072 10.9518V16.762C42.1072 17.3297 41.1388 17.4633 41.1388 16.6952L39.4359 15.994C39.2355 16.4281 38.5677 16.2612 38.5677 15.7603V11.052C38.5677 7.27873 35.6626 4.03971 31.9561 3.6724C30.0861 3.47205 26.6801 3.47205 24.8436 3.70579C21.2039 4.17328 18.4657 7.34551 18.4657 11.052V15.7603C18.4657 16.2612 17.9315 16.3613 17.6643 16.0942L15.8946 16.6952C15.8946 17.0292 15.6942 17.2295 15.3937 17.2295Z"
          fill="#4A5254"
        />
        <path
          fill-rule="evenodd"
          clip-rule="evenodd"
          d="M14.9262 13.1891V12.2207H18.4657V13.1891H14.9262ZM42.1072 12.2207V13.1891H38.5677V12.2207H42.1072Z"
          fill="#3C4345"
        />
        <path
          fill-rule="evenodd"
          clip-rule="evenodd"
          d="M32.29 40.4037H24.7434C20.3357 40.4037 16.3954 37.7323 14.6924 33.6585C14.5589 33.3246 14.7926 33.0575 15.0598 33.0241L14.2583 22.6726C14.058 22.6392 13.891 22.4722 13.891 22.2385V19.2332C13.891 17.0627 15.6608 15.293 17.8313 15.293H39.2021C41.3726 15.293 43.1424 17.0627 43.1424 19.2332V29.5513C43.1424 35.5285 38.2671 40.4037 32.29 40.4037Z"
          fill="#155dfc"
        />
        <path
          fill-rule="evenodd"
          clip-rule="evenodd"
          d="M30.8541 32.6893H26.1793C25.8787 32.6893 25.645 32.4222 25.7118 32.1551L26.246 28.5153C24.2425 26.5118 25.645 23.0391 28.5167 23.0391C31.3884 23.0391 32.7909 26.5118 30.7873 28.5153L31.3216 32.1551C31.355 32.4222 31.1547 32.6893 30.8541 32.6893Z"
          fill="#4A5254"
        />
        <path
          fill-rule="evenodd"
          clip-rule="evenodd"
          d="M18.232 26.4465H12.2548C9.41652 26.4465 9.41652 21.7383 12.2548 21.7383H18.232C21.0703 21.7383 21.0703 26.4465 18.232 26.4465Z"
          fill="#157867"
        />
        <path
          fill-rule="evenodd"
          clip-rule="evenodd"
          d="M18.232 30.1846H12.2548C9.41652 30.1846 9.41652 25.5098 12.2548 25.5098H18.232C21.0703 25.5098 21.0703 30.1846 18.232 30.1846Z"
          fill="#3BA189"
        />
        <path
          fill-rule="evenodd"
          clip-rule="evenodd"
          d="M18.232 33.9249H12.2548C9.41652 33.9249 9.41652 29.25 12.2548 29.25H18.232C21.0703 29.25 21.0703 33.9249 18.232 33.9249Z"
          fill="#157867"
        />
        <path
          fill-rule="evenodd"
          clip-rule="evenodd"
          d="M27.9824 23.2073C30.8207 23.2073 32.2566 26.68 30.2197 28.6836L30.7873 32.3233C30.7873 32.4568 30.754 32.5904 30.6872 32.6906C31.0211 32.6906 31.3884 32.5904 31.3216 32.1563L30.7873 28.5166C33.2917 26.0122 30.4534 21.9384 27.2478 23.3075C27.4815 23.2407 27.7153 23.2073 27.9824 23.2073Z"
          fill="#434A4C"
        />
      </g>
      <defs>
        <clipPath id="clip0_1029_2941">
          <rect width="57" height="57" fill="white" />
        </clipPath>
      </defs>
    </svg>