<svg
      xmlns="http://www.w3.org/2000/svg"
      fill="none"
      viewBox="0 0 98 98"
    >
      <rect
        width="98"
        height="98"
        rx="49"
        fill="url(#paint0_linear_610_3703)"
        fill-opacity="0.05"
      />
      <rect
        x="12"
        y="12"
        width="74"
        height="74"
        rx="37"
        fill="url(#paint1_linear_610_3703)"
        fill-opacity="0.1"
      />
      <rect
        x="12.5"
        y="12.5"
        width="73"
        height="73"
        rx="36.5"
        stroke="url(#paint2_linear_610_3703)"
        stroke-opacity="0.2"
      />
      <path
        fill-rule="evenodd"
        clip-rule="evenodd"
        d="M48.5 31C43.7554 31 39.9091 34.9175 39.9091 39.75V44.75C37.1979 44.75 35 46.9886 35 49.75V61C35 63.7614 37.1979 66 39.9091 66H57.0909C59.8021 66 62 63.7614 62 61V49.75C62 46.9886 59.8021 44.75 57.0909 44.75V39.75C57.0909 34.9175 53.2446 31 48.5 31ZM54.6364 44.75V39.75C54.6364 36.2982 51.889 33.5 48.5 33.5C45.111 33.5 42.3636 36.2982 42.3636 39.75V44.75H54.6364Z"
        fill="#155dfc"
      />
      <defs>
        <linearGradient
          id="paint0_linear_610_3703"
          x1="49"
          y1="0"
          x2="49"
          y2="98"
          gradientUnits="userSpaceOnUse"
        >
          <stop stop-color="#155dfc" />
          <stop offset="1" stop-color="#CAFF33" stop-opacity="0" />
        </linearGradient>
        <linearGradient
          id="paint1_linear_610_3703"
          x1="49"
          y1="-37"
          x2="49"
          y2="203"
          gradientUnits="userSpaceOnUse"
        >
          <stop stop-color="#155dfc" />
          <stop offset="0.467671" stop-color="#CAFF33" stop-opacity="0" />
        </linearGradient>
        <linearGradient
          id="paint2_linear_610_3703"
          x1="49"
          y1="-116.5"
          x2="49"
          y2="153"
          gradientUnits="userSpaceOnUse"
        >
          <stop stop-color="#155dfc" />
          <stop offset="0.716291" stop-color="#CAFF33" stop-opacity="0" />
        </linearGradient>
      </defs>
    </svg>