<svg
      xmlns="http://www.w3.org/2000/svg"
      width="43"
      height="43"
      viewBox="0 0 43 43"
    >
      <g clip-path="url(#clip0_1025_2147)">
        <path
          d="M19.1437 42.5665C18.6054 42.8608 17.9614 42.8889 17.4007 42.6397C13.6605 40.9772 -0.53696 33.0803 0.0157003 9.18243C4.49312 8.40962 7.96886 4.61497 7.91585 0H28.6701C28.623 4.61423 32.0881 8.41008 36.5703 9.18243C36.9712 31.3786 22.7993 40.5683 19.1437 42.5665Z"
          fill="#E3EDF0"
        />
        <path
          d="M31.2128 13.8711L29.1388 11.7871L27.7484 13.1707L26.3581 11.7871L24.2842 13.8711L25.6644 15.2447L24.2842 16.6183L26.3581 18.7023L27.7484 17.3187L29.1388 18.7023L31.2128 16.6183L29.8324 15.2447L31.2128 13.8711Z"
          fill="#738394"
        />
        <path
          d="M19.6797 11.7871L18.2893 13.1707L16.899 11.7871L14.8251 13.8711L16.2053 15.2447L14.8251 16.6183L16.899 18.7023L18.2893 17.3187L19.6797 18.7023L21.7537 16.6183L20.3734 15.2447L21.7537 13.8711L19.6797 11.7871Z"
          fill="#738394"
        />
        <path
          d="M10.2206 11.7871L8.83025 13.1707L7.43992 11.7871L5.3659 13.8711L6.74622 15.2447L5.3659 16.6183L7.43992 18.7023L8.83025 17.3187L10.2206 18.7023L12.2946 16.6183L10.9143 15.2447L12.2946 13.8711L10.2206 11.7871Z"
          fill="#738394"
        />
        <path
          d="M33.7051 43.0003C38.8385 43.0003 43 38.8497 43 33.7296C43 28.6096 38.8385 24.459 33.7051 24.459C28.5717 24.459 24.4102 28.6096 24.4102 33.7296C24.4102 38.8497 28.5717 43.0003 33.7051 43.0003Z"
          fill="#155dfc"
        />
        <path
          d="M30.9368 37.6445L27.989 34.2288L30.2149 32.3078L32.1209 34.5164L37.3308 29.2246L39.4259 31.2873L33.0973 37.7154C32.8206 37.9966 31.7906 38.5595 30.9368 37.6445Z"
          fill="white"
        />
      </g>
      <defs>
        <clipPath id="clip0_1025_2147">
          <rect width="43" height="43" fill="white" />
        </clipPath>
      </defs>
    </svg>