<svg
      xmlns="http://www.w3.org/2000/svg"
      fill="none"
      viewBox="0 0 98 98"
    >
      <rect
        width="98"
        height="98"
        rx="49"
        fill="url(#paint0_linear_1372_442)"
        fill-opacity="0.05"
      />
      <rect
        x="12"
        y="12"
        width="74"
        height="74"
        rx="37"
        fill="url(#paint1_linear_1372_442)"
        fill-opacity="0.1"
      />
      <rect
        x="12.5"
        y="12.5"
        width="73"
        height="73"
        rx="36.5"
        stroke="url(#paint2_linear_1372_442)"
        stroke-opacity="0.2"
      />
      <g clip-path="url(#clip0_1372_442)">
        <path
          d="M54.6673 40.5C54.6673 43.6297 52.1303 46.1667 49.0007 46.1667C45.871 46.1667 43.334 43.6297 43.334 40.5C43.334 37.3704 45.871 34.8334 49.0007 34.8334C52.1303 34.8334 54.6673 37.3704 54.6673 40.5Z"
          fill="#155dfc"
        />
        <path
          d="M54.2101 51.1289C53.5399 51.137 52.9153 51.1615 52.3709 51.2347C51.4602 51.3571 50.4633 51.6498 49.6396 52.4735C48.8159 53.2972 48.5232 54.2941 48.4008 55.2048C48.2907 56.0232 48.2909 57.0232 48.291 58.0865V58.3301C48.2909 59.3933 48.2907 60.3933 48.4008 61.2117C48.4867 61.8508 48.6564 62.5323 49.0346 63.1666C49.0229 63.1666 49.0111 63.1666 48.9993 63.1666C37.666 63.1666 37.666 60.3124 37.666 56.7916C37.666 53.2708 42.7401 50.4166 48.9993 50.4166C50.8781 50.4166 52.6501 50.6738 54.2101 51.1289Z"
          fill="#155dfc"
        />
        <path
          fill-rule="evenodd"
          clip-rule="evenodd"
          d="M51.1421 62.4405C51.8683 63.1667 53.037 63.1667 55.3743 63.1667C57.7117 63.1667 58.8804 63.1667 59.6066 62.4405C60.3327 61.7144 60.3327 60.5457 60.3327 58.2083C60.3327 55.871 60.3327 54.7023 59.6066 53.9761C58.8804 53.25 57.7117 53.25 55.3743 53.25C53.037 53.25 51.8683 53.25 51.1421 53.9761C50.416 54.7023 50.416 55.871 50.416 58.2083C50.416 60.5457 50.416 61.7144 51.1421 62.4405ZM53.9953 60.3C53.0008 59.5878 51.8327 58.7514 51.8327 57.3014C51.8327 55.7006 53.7807 54.5654 55.3743 56.1043C56.968 54.5654 58.916 55.7006 58.916 57.3014C58.916 58.7514 57.7479 59.5878 56.7534 60.3C56.65 60.374 56.5485 60.4467 56.4504 60.5186C56.0827 60.788 55.7285 61.0417 55.3743 61.0417C55.0202 61.0417 54.666 60.788 54.2983 60.5186C54.2002 60.4467 54.0987 60.374 53.9953 60.3Z"
          fill="#155dfc"
        />
      </g>
      <defs>
        <linearGradient
          id="paint0_linear_1372_442"
          x1="49"
          y1="0"
          x2="49"
          y2="98"
          gradientUnits="userSpaceOnUse"
        >
          <stop stop-color="#155dfc" />
          <stop offset="1" stop-color="#CAFF33" stop-opacity="0" />
        </linearGradient>
        <linearGradient
          id="paint1_linear_1372_442"
          x1="49"
          y1="-37"
          x2="49"
          y2="203"
          gradientUnits="userSpaceOnUse"
        >
          <stop stop-color="#155dfc" />
          <stop offset="0.467671" stop-color="#CAFF33" stop-opacity="0" />
        </linearGradient>
        <linearGradient
          id="paint2_linear_1372_442"
          x1="49"
          y1="-116.5"
          x2="49"
          y2="153"
          gradientUnits="userSpaceOnUse"
        >
          <stop stop-color="#155dfc" />
          <stop offset="0.716291" stop-color="#CAFF33" stop-opacity="0" />
        </linearGradient>
        <clipPath id="clip0_1372_442">
          <rect width="34" height="34" fill="white" transform="translate(32 32)" />
        </clipPath>
      </defs>
    </svg>