<svg
      xmlns="http://www.w3.org/2000/svg"
      fill="none"
      viewBox="0 0 98 98"
    >
      <rect
        width="98"
        height="98"
        rx="49"
        fill="url(#paint0_linear_1372_446)"
        fill-opacity="0.05"
      />
      <rect
        x="12"
        y="12"
        width="74"
        height="74"
        rx="37"
        fill="url(#paint1_linear_1372_446)"
        fill-opacity="0.1"
      />
      <rect
        x="12.5"
        y="12.5"
        width="73"
        height="73"
        rx="36.5"
        stroke="url(#paint2_linear_1372_446)"
        stroke-opacity="0.2"
      />
      <g clip-path="url(#clip0_1372_446)">
        <path
          d="M35.1875 49.3541C35.1875 48.7673 35.6632 48.2916 36.25 48.2916C43.8784 48.2916 50.0625 54.4757 50.0625 62.1041C50.0625 62.6909 49.5868 63.1666 49 63.1666C48.4132 63.1666 47.9375 62.6909 47.9375 62.1041C47.9375 55.6493 42.7048 50.4166 36.25 50.4166C35.6632 50.4166 35.1875 49.9409 35.1875 49.3541Z"
          fill="#155dfc"
        />
        <path
          d="M35.1875 53.6041C35.1875 53.0173 35.6632 52.5416 36.25 52.5416C41.5312 52.5416 45.8125 56.8229 45.8125 62.1041C45.8125 62.6909 45.3368 63.1666 44.75 63.1666C44.1632 63.1666 43.6875 62.6909 43.6875 62.1041C43.6875 57.9965 40.3576 54.6666 36.25 54.6666C35.6632 54.6666 35.1875 54.1909 35.1875 53.6041Z"
          fill="#155dfc"
        />
        <path
          d="M36.25 56.7916C35.6632 56.7916 35.1875 57.2673 35.1875 57.8541C35.1875 58.4409 35.6632 58.9166 36.25 58.9166C38.0104 58.9166 39.4375 60.3437 39.4375 62.1041C39.4375 62.6909 39.9132 63.1666 40.5 63.1666C41.0868 63.1666 41.5625 62.6909 41.5625 62.1041C41.5625 59.1701 39.184 56.7916 36.25 56.7916Z"
          fill="#155dfc"
        />
        <path
          d="M34.8686 46.4811C35.2867 46.2796 35.7555 46.1667 36.2507 46.1667C45.0527 46.1667 52.1882 53.3022 52.1882 62.1042C52.1882 62.4762 52.1244 62.8332 52.0073 63.1651C55.9474 63.1513 58.0639 63.0183 59.5562 61.7333C61.2209 60.2999 61.5661 57.9005 62.2566 53.1016L62.6515 50.357C63.1891 46.6212 63.4579 44.7533 62.6922 43.1562C61.9266 41.5591 60.2969 40.5884 57.0375 38.6468L55.0757 37.4781C52.1158 35.715 50.6359 34.8334 49.0007 34.8334C47.3654 34.8334 45.8855 35.715 42.9256 37.4781L40.9638 38.6468C37.7044 40.5883 36.0747 41.5591 35.3091 43.1562C34.8691 44.074 34.7707 45.0813 34.8686 46.4811Z"
          fill="#155dfc"
        />
      </g>
      <defs>
        <linearGradient
          id="paint0_linear_1372_446"
          x1="49"
          y1="0"
          x2="49"
          y2="98"
          gradientUnits="userSpaceOnUse"
        >
          <stop stop-color="#155dfc" />
          <stop offset="1" stop-color="#FBC531" stop-opacity="0.3" />
        </linearGradient>
        <linearGradient
          id="paint1_linear_1372_446"
          x1="49"
          y1="-37"
          x2="49"
          y2="203"
          gradientUnits="userSpaceOnUse"
        >
          <stop offset="0.31" stop-color="#155dfc" />
          <stop offset="0.467671" stop-color="#FBC531" stop-opacity="0.1" />
        </linearGradient>
        <linearGradient
          id="paint2_linear_1372_446"
          x1="49"
          y1="-116.5"
          x2="49"
          y2="153"
          gradientUnits="userSpaceOnUse"
        >
          <stop stop-color="#155dfc" />
          <stop offset="0.716291" stop-color="#FBC531" stop-opacity="0" />
        </linearGradient>
        <clipPath id="clip0_1372_446">
          <rect width="34" height="34" fill="white" transform="translate(32 32)" />
        </clipPath>
      </defs>
    </svg>