<svg xmlns="http://www.w3.org/2000/svg" viewBox="0 0 172 172">
  <path
    d="M151.66458,114.66667h-131.32917c11.06533,25.30192 36.28483,43 65.66458,43c29.37975,0 54.59925,-17.69808 65.66458,-43z"
    fill="#e74c3c"/>
  <path
    d="M157.66667,86c0,-10.19817 -2.16433,-19.88392 -6.00208,-28.66667h-131.32917c-3.83775,8.78275 -6.00208,18.4685 -6.00208,28.66667c0,10.19817 2.16433,19.88392 6.00208,28.66667h131.32558c3.84133,-8.78275 6.00567,-18.4685 6.00567,-28.66667zM79.95133,62.87675c2.94908,5.26392 6.04867,1.00692 6.04867,1.00692c0,0 3.09958,4.257 6.04508,-1.00692c1.68058,3.49017 -3.21067,6.66142 -6.04508,3.47225c-2.838,3.18917 -7.72567,0.01792 -6.04867,-3.47225zM75.9595,66.3275c0,0 -17.84142,13.94275 -4.72283,34.00583c-12.35533,-7.55725 -13.4375,-28.31192 4.72283,-34.00583zM88.05325,107.12733l-2.05325,2.66958l-2.05325,-2.65167c0,0 -4.79808,1.58742 -11.12267,-0.61633c5.18867,0 8.08042,-0.91375 9.14467,-1.45483c0,0 -11.739,-6.34608 -11.51683,-19.22458c0.69158,-13.02542 7.6325,-17.00292 7.6325,-17.00292c0,0 -12.35533,17.99192 5.78708,33.03475l-0.78475,-18.60825v-13.66325c1.02842,-0.24008 2.91325,-2.40442 2.91325,-2.40442c0,0 1.88483,2.16433 2.90967,2.408v13.66325l-0.80267,18.60825c18.16033,-15.02492 5.805,-33.03475 5.805,-33.03475c0,0 6.9445,3.956 7.6325,17.02083c0.22575,12.8785 -11.51683,19.20308 -11.51683,19.20308c1.06425,0.54108 3.956,1.47275 9.14467,1.47275c-6.32458,2.20375 -11.11908,0.5805 -11.11908,0.5805zM100.78125,100.33333c13.10067,-20.06308 -4.72283,-34.00583 -4.72283,-34.00583c18.14242,5.69392 17.06025,26.44858 4.72283,34.00583z"
    fill="#eceff1"/>
  <path
    d="M86,14.33333c-29.37975,0 -54.59925,17.69808 -65.66458,43h131.32558c-11.06175,-25.30192 -36.28125,-43 -65.661,-43z"
    fill="#4caf50"/>
  <path
    d="M95.20558,67.6605c0,0 16.31492,12.76025 4.3215,31.12483c11.29467,-6.91583 12.28367,-25.91467 -4.3215,-31.12483z"
    fill="#d32f2f"/>
  <path
    d="M85.99642,67.67842c2.59792,2.92042 7.0735,0.01792 5.53625,-3.17842c-2.69825,4.816 -5.53625,0.92092 -5.53625,0.92092c0,0 -2.83442,3.89508 -5.53267,-0.92092c-1.53725,3.19633 2.93833,6.09883 5.53267,3.17842z"
    fill="#d32f2f"/>
  <path
    d="M100.22942,85.5485c-0.63067,-11.95758 -6.9875,-15.58033 -6.9875,-15.58033c0,0 11.309,16.48692 -5.31408,30.23975l0.73458,-17.03158v-12.50583c-0.93883,-0.22217 -2.666,-2.20375 -2.666,-2.20375c0,0 -1.72717,1.98158 -2.666,2.20375v12.50583l0.71667,17.03158c-16.60517,-13.77075 -5.29617,-30.23975 -5.29617,-30.23975c0,0 -6.35683,3.63708 -6.9875,15.56242c-0.20425,11.78917 10.54217,17.59775 10.54217,17.59775c-0.97467,0.4945 -3.62275,1.333 -8.37067,1.333c5.79067,2.01742 10.18025,0.56258 10.18025,0.56258l1.87767,2.42592l1.87767,-2.44383c0,0 4.38958,1.48708 10.18025,-0.53033c-4.74792,0 -7.396,-0.85283 -8.37067,-1.35092c0.00717,0 10.75358,-5.79067 10.54933,-17.57625z"
    fill="#d32f2f"/>
  <path
    d="M76.80517,67.6605c-16.62308,5.21017 -15.6305,24.209 -4.3215,31.12483c-12.00775,-18.36458 4.3215,-31.12483 4.3215,-31.12483z"
    fill="#d32f2f"/>
</svg>
